<svg xmlns="http://www.w3.org/2000/svg" xmlns:xlink="http://www.w3.org/1999/xlink" width="1080" zoomAndPan="magnify" viewBox="0 0 810 809.999993" height="1080" preserveAspectRatio="xMidYMid meet" version="1.0"><defs><g/></defs><g fill="#000000" fill-opacity="1"><g transform="translate(307.252596, 107.186045)"><g><path d="M 0 41.359375 L 373.71875 41.359375 L 373.71875 140.140625 L 307.78125 140.140625 L 307.78125 144.515625 C 329.84375 152.304688 347.15625 165.320312 359.71875 183.5625 C 372.289062 201.8125 378.578125 223.507812 378.578125 248.65625 C 378.578125 274.28125 372.207031 296.09375 359.46875 314.09375 C 346.738281 332.101562 329.507812 344.109375 307.78125 350.109375 L 307.78125 354 C 329.1875 361.625 346.335938 375.453125 359.234375 395.484375 C 372.128906 415.515625 378.578125 439.238281 378.578125 466.65625 C 378.578125 501.53125 367.503906 529.875 345.359375 551.6875 C 323.222656 573.5 291.878906 584.40625 251.328125 584.40625 L 0 584.40625 L 0 481.015625 L 230.890625 481.015625 C 251.648438 481.015625 267.222656 475.5 277.609375 464.46875 C 287.992188 453.4375 293.1875 439.648438 293.1875 423.109375 C 293.1875 404.285156 287.179688 389.601562 275.171875 379.0625 C 263.171875 368.519531 247.519531 363.25 228.21875 363.25 L 0 363.25 L 0 262.765625 L 233.078125 262.765625 C 251.410156 262.765625 266.007812 257.53125 276.875 247.0625 C 287.75 236.601562 293.1875 222.859375 293.1875 205.828125 C 293.1875 188.640625 286.898438 174.207031 274.328125 162.53125 C 261.753906 150.851562 245.085938 145.015625 224.328125 145.015625 L 0 145.015625 Z M 0 41.359375 "/></g></g></g><g fill="#000000" fill-opacity="1"><g transform="translate(89.13027, 721.041327)"><g><path d="M 184.5 -633.984375 L 184.5 0 L 52.625 0 L 52.625 -633.984375 Z M 184.5 -633.984375 "/></g></g></g></svg>